<svg width="497" height="437" viewBox="0 0 497 437" fill="none" xmlns="http://www.w3.org/2000/svg">
<rect width="497" height="437" rx="74" fill="#1E1E1E"/>
<path d="M230.062 267.516C230.062 266.734 229.867 266.083 229.477 265.562L149.594 137.828C147.38 134.312 144.971 130.797 142.367 127.281C139.893 123.635 137.094 120.25 133.969 117.125C130.974 113.87 127.654 111.07 124.008 108.727C120.492 106.253 116.651 104.495 112.484 103.453C111.833 103.323 110.792 103.128 109.359 102.867C107.927 102.477 106.43 102.151 104.867 101.891C103.305 101.63 101.807 101.37 100.375 101.109C98.9427 100.849 97.901 100.654 97.25 100.523C95.9479 100.393 94.7109 99.612 93.5391 98.1797C92.3672 96.6172 91.7812 95.25 91.7812 94.0781C91.7812 93.8177 91.7812 93.362 91.7812 92.7109C91.9115 92.0599 92.0417 91.474 92.1719 90.9531C92.4323 90.3021 92.7578 89.7812 93.1484 89.3906C93.5391 88.8698 94.0599 88.6094 94.7109 88.6094H227.328C228.76 88.6094 229.672 89.2604 230.062 90.5625C230.453 91.8646 230.648 93.0365 230.648 94.0781C230.648 95.3802 230.518 96.7474 230.258 98.1797C230.128 99.612 229.411 100.328 228.109 100.328C224.594 100.589 221.273 100.849 218.148 101.109C215.023 101.37 212.354 102.021 210.141 103.062C207.927 103.974 206.169 105.406 204.867 107.359C203.565 109.312 202.914 112.047 202.914 115.562C202.914 118.688 203.695 121.487 205.258 123.961L264.828 219.664C266.26 221.878 267.172 223.245 267.562 223.766C268.083 224.286 268.865 224.547 269.906 224.547C270.818 224.547 271.599 224.026 272.25 222.984C273.031 221.943 273.943 220.576 274.984 218.883L322.055 139C323.878 136.005 325.701 132.685 327.523 129.039C329.477 125.393 330.453 121.682 330.453 117.906C330.453 114.26 329.932 111.396 328.891 109.312C327.979 107.099 326.547 105.406 324.594 104.234C322.641 103.062 320.232 102.216 317.367 101.695C314.633 101.174 311.443 100.719 307.797 100.328C306.365 100.198 305.518 99.4167 305.258 97.9844C304.997 96.5521 304.867 95.25 304.867 94.0781C304.867 93.1667 304.997 92.0599 305.258 90.7578C305.648 89.3255 306.625 88.6094 308.188 88.6094H406.43C407.471 88.6094 408.188 89.3906 408.578 90.9531C408.969 92.3854 409.164 93.4271 409.164 94.0781C409.164 95.3802 408.708 96.487 407.797 97.3984C407.016 98.3099 405.974 99.0911 404.672 99.7422C403.5 100.263 402.198 100.719 400.766 101.109C399.464 101.37 398.227 101.63 397.055 101.891C390.544 103.323 384.88 105.732 380.062 109.117C375.375 112.372 370.753 116.474 366.195 121.422C365.544 122.073 364.568 123.115 363.266 124.547C362.094 125.979 361.443 126.826 361.312 127.086L285.727 256.969V325.914C285.727 333.727 287.745 339.781 291.781 344.078C295.818 348.375 302.979 351.044 313.266 352.086C314.698 352.216 316.521 352.281 318.734 352.281C320.948 352.281 322.836 352.281 324.398 352.281C325.049 352.281 325.44 352.477 325.57 352.867C325.831 353.258 325.961 353.583 325.961 353.844V362.438C325.961 362.698 325.831 363.023 325.57 363.414C325.44 363.805 325.049 364 324.398 364H191.391C190.74 364 190.284 363.805 190.023 363.414C189.893 363.023 189.828 362.698 189.828 362.438V353.844C189.828 353.583 189.893 353.258 190.023 352.867C190.284 352.477 190.74 352.281 191.391 352.281C192.823 352.281 194.646 352.281 196.859 352.281C199.203 352.281 201.091 352.216 202.523 352.086C212.81 351.044 219.971 348.375 224.008 344.078C228.044 339.781 230.062 333.727 230.062 325.914V267.516Z" fill="#D9D9D9"/>
</svg>
