<svg xmlns="http://www.w3.org/2000/svg" fill="none" viewBox="0 0 500 500"><path fill="#000000" d="M434.309 0h-2.532c-4.23 5.476-8.4 11-12.532 16.552-7.308 9.82-14.492 19.727-21.671 29.628-15.094 20.818-30.17 41.61-46.345 61.518-23.524 28.953-50.348 54.013-77.421 79.307-7.441 6.952-14.901 13.921-22.317 20.994-28.76 27.432-54.537 58.241-80.162 88.867-12.751 15.239-25.464 30.433-38.488 45.144-32.799 37.046-59.197 77.937-84.44 120.112-.422.704-.997 1.73-1.706 2.993-2.609 4.649-7.023 12.514-12.184 19.382-3.281 4.366-6.802 8.238-10.273 10.594-3.472 2.356-6.669 3.059-9.526 1.587-9.153-4.711-12.99-10.155-13.676-15.816-.695-5.74 1.809-11.995 6.026-18.38 4.203-6.366 10.002-12.704 15.65-18.58a850.022 850.022 0 0 1 3.666-3.782v-.002c4.272-4.391 8.223-8.454 10.941-11.914 1.826-2.324 3.648-4.649 5.468-6.972l.028-.035c13.087-16.701 26.116-33.327 40.207-49.244 31.674-35.776 61.314-73.506 90.843-111.096 9.311-11.853 18.611-23.692 27.96-35.451 49.711-62.524 107.314-118.862 164.604-174.895l.014-.014c9.901-9.683 19.793-19.358 29.633-29.054 7.116-7.012 14.062-14.175 20.89-21.443h-2.745c-6.405 6.79-12.914 13.485-19.573 20.046-9.834 9.69-19.723 19.362-29.625 29.047-57.288 56.029-114.992 112.466-164.788 175.096-9.365 11.78-18.676 23.632-27.993 35.493-29.521 37.58-59.11 75.246-90.741 110.973-14.134 15.965-27.202 32.641-40.286 49.337l-.015.019v.001l-.001.001a7303.05 7303.05 0 0 1-5.477 6.983c-2.645 3.368-6.491 7.323-10.747 11.699v.001l-.008.007c-1.213 1.248-2.459 2.529-3.72 3.841-5.654 5.881-11.565 12.332-15.878 18.862-2.345 3.551-4.249 7.172-5.369 10.775v12.879c1.87 4.961 6.22 9.487 13.77 13.374 3.825 1.968 7.866.829 11.613-1.714 3.748-2.543 7.427-6.627 10.75-11.049 5.258-6.996 9.786-15.067 12.38-19.69a132.544 132.544 0 0 1 1.627-2.858c25.226-42.147 51.549-82.91 84.222-119.815 13.104-14.801 25.856-30.042 38.624-45.303l.001-.001c25.58-30.573 51.227-61.228 79.909-88.585 7.38-7.04 14.816-13.987 22.242-20.924l.004-.003c27.089-25.308 54.044-50.49 77.663-79.561 16.21-19.95 31.341-40.818 46.454-61.661l.001-.002h.001v-.001c7.171-9.889 14.337-19.772 21.612-29.549 4.428-5.95 8.898-11.863 13.436-17.718Z"></path><path fill="#000000" d="M0 9.939C2.988 6.62 5.981 3.309 8.98 0h2.7C7.777 4.301 3.883 8.61 0 12.928v-2.99Z"></path><path fill="#000000" d="M105.521 0c-13.813 16.466-27.83 32.81-42.153 48.988-18.584 20.99-38.178 41.203-57.757 61.4l-.002.001-.032.034-.004.004-.004.004-.001.001-.004.005-.002.001v.001A9985.61 9985.61 0 0 0 0 116.178v-2.872l4.181-4.314C23.748 88.808 43.294 68.645 61.846 47.69 75.793 31.937 89.448 16.028 102.91 0h2.612Z"></path><path fill="#000000" d="M233.998 0h2.641c-40.538 47.011-82.974 92.668-125.349 138.259l-.002.003-.001.001-.001.001c-34.093 36.68-68.146 73.318-101.14 110.585L0 260.309v-3.017l8.624-9.741c33.066-37.348 67.148-74.016 101.25-110.705C151.837 91.699 193.831 46.519 233.998 0Z"></path><path fill="#000000" d="M0 203.649v-3.068C55.953 135.472 110.825 69.398 165.68 3.344L168.457 0h2.601l-3.786 4.56-.004.003C111.901 71.233 56.505 137.94 0 203.65Z"></path><path fill="#000000" d="m222.039 70.863.001-.002.044-.052C241.7 47.189 261.314 23.57 280.974 0h2.606c-20.014 23.99-39.982 48.034-59.952 72.082l-.001.001-.002.002-.002.002-.001.002-.001.001C149.98 160.766 76.287 249.503 0 335.88v-3.022c75.726-85.81 148.897-173.919 222.039-261.994Z"></path><path fill="#000000" d="M348.257 0c-5.599 7.526-11.304 14.955-17.205 22.194-51.585 63.28-107.549 123.491-163.407 183.589-34.092 36.68-68.146 73.318-101.14 110.585L0 391.486v-3.017l64.984-73.399c33.065-37.348 67.147-74.016 101.249-110.705C222.05 144.312 277.922 84.201 329.478 20.958c5.576-6.84 10.977-13.85 16.281-20.958h2.498Z"></path><path fill="#000000" d="M402.332 478.844c32.533-38.651 65.06-77.294 97.668-115.838v3.097c-32.081 37.927-64.088 75.952-96.103 113.987l-.011.014-.012.014-.002.002-7.435 8.833L387.138 500h-2.615l17.786-21.129.003-.003.02-.024Z"></path><path fill="#000000" d="M489.843 411.625c3.409-4.082 6.792-8.192 10.157-12.323v-3.172c-3.879 4.778-7.78 9.528-11.716 14.241-25.133 30.096-50.735 59.934-76.574 89.629h2.651c25.47-29.284 50.706-58.708 75.482-88.375Z"></path><path fill="#000000" d="M39.782 500c19.97-22.753 39.576-45.908 59.149-69.124l7.799-9.255.179-.213c27.908-33.122 55.842-66.276 84.749-98.45 18.164-20.216 36.637-40.338 55.128-60.481l.001-.001c30.685-33.425 61.419-66.904 90.87-100.95 14.881-17.203 29.176-34.763 43.473-52.326l.001-.002.018-.022.013-.016c3.359-4.127 6.719-8.254 10.086-12.377 17.704-21.673 35.616-43.216 54.816-63.913.922-.994 3.699-4.626 7.437-9.605 2.009-2.677 4.279-5.719 6.66-8.91l.072-.098c2.002-2.683 4.081-5.47 6.151-8.235A1895.18 1895.18 0 0 1 470.909 0h2.509a1803.98 1803.98 0 0 0-5.409 7.193c-2.09 2.79-4.194 5.61-6.218 8.325a3753.24 3753.24 0 0 1-6.667 8.92c-3.695 4.922-6.557 8.671-7.57 9.764-19.155 20.648-37.034 42.15-54.733 63.819a9722.974 9722.974 0 0 0-10.087 12.377l-.02.025c-14.299 17.566-28.617 35.155-43.52 52.383-29.466 34.063-60.242 67.588-90.945 101.033-18.487 20.138-36.947 40.247-55.08 60.428-28.884 32.149-56.798 65.278-84.709 98.405l-7.976 9.465C81.281 454.914 62.037 477.644 42.442 500h-2.66Z"></path><path fill="#000000" d="M481.319 0c-.281.947-.548 1.845-.796 2.662a98.683 98.683 0 0 1-.886 2.814c-.247.736-.477 1.36-.67 1.722-1.986 3.724-5.81 8.373-9.751 12.95a781.37 781.37 0 0 1-2.751 3.174c-3.052 3.508-5.976 6.869-8.075 9.7-11.46 15.46-24.89 30.426-38.457 45.279-1.47 1.61-2.942 3.218-4.413 4.826l-.08.087-.003.003c-12.087 13.208-24.125 26.362-34.872 39.775-6.897 8.607-13.807 17.268-20.739 25.956l-.077.097-.006.007-.006.007-.028.035c-30.728 38.512-61.876 77.551-94.057 114.753C214.385 323.112 162.6 380.87 110.215 438.859 91.822 459.22 73.522 479.503 55.366 500h-2.67c18.54-20.949 37.23-41.664 56.012-62.454 52.381-57.986 104.155-115.731 155.408-174.98 32.151-37.168 63.268-76.167 93.994-114.676l.003-.003c6.973-8.74 13.926-17.455 20.867-26.117 10.792-13.469 22.878-26.675 34.96-39.877l.049-.054 4.444-4.859c13.568-14.855 26.934-29.752 38.327-45.12 2.15-2.901 5.148-6.347 8.211-9.867l.001-.002.002-.002.005-.006.01-.01.034-.04c.885-1.018 1.777-2.042 2.654-3.061 3.968-4.61 7.638-9.093 9.503-12.59.103-.192.285-.66.541-1.422.247-.734.54-1.674.868-2.758.2-.658.41-1.363.63-2.102h2.1Z"></path><path fill="#000000" d="M483.027 500A11608.5 11608.5 0 0 1 500 481.48v2.955c-4.758 5.183-9.514 10.371-14.265 15.565h-2.708Z"></path><path fill="#000000" d="m500 426.952-.33.389A8022.32 8022.32 0 0 1 437.281 500h2.649A8028.477 8028.477 0 0 0 500 430.044v-3.092Z"></path><path fill="#000000" d="M500 449.189c-14.199 16.994-28.425 33.977-42.83 50.811h-2.632c15.301-17.862 30.39-35.889 45.462-53.931v3.12Z"></path><path fill="#000000" d="m473.814 352.073.091-.099.032-.034.096-.105.037-.04.102-.111c8.624-9.371 17.239-18.733 25.828-28.093v2.956c-8.225 8.96-16.471 17.921-24.725 26.89-44.389 48.237-88.996 96.71-131.678 146.563h-2.632c43.041-50.335 88.056-99.252 132.821-147.896l.002-.002.026-.029Z"></path><path fill="#000000" d="m498.131 341.645 1.869-2.352v-3.217l-3.371 4.24-.167.211c-15.954 20.072-31.899 40.133-48.305 59.805-23.906 28.668-48.939 55.339-74.174 82.225l-.004.004-.009.01c-5.436 5.792-10.882 11.594-16.328 17.429h2.734c5.016-5.37 10.034-10.716 15.046-16.056l.005-.005.011-.013c25.243-26.894 50.33-53.622 74.279-82.341 16.471-19.75 32.446-39.85 48.414-59.94Z"></path><path fill="#000000" d="M500 281.661a1741.123 1741.123 0 0 1-16.2 17.92c-9.307 10.146-18.646 20.294-27.995 30.454l-.002.001-.003.004C404.522 385.762 352.916 441.841 304.324 500h2.608c48.249-57.669 99.446-113.303 150.356-168.626h.001c9.352-10.163 18.695-20.316 28.008-30.469A1712.51 1712.51 0 0 0 500 284.662v-3.001Z"></path><path fill="#000000" d="M500 294.669c-6.64 8.285-13.247 16.598-19.856 24.913-15.967 20.089-31.943 40.189-48.413 59.939-23.949 28.719-49.036 55.447-74.279 82.342l-.011.012-.002.002-.002.002a6752.994 6752.994 0 0 0-20.777 22.202A1359.91 1359.91 0 0 0 322.096 500h-2.688a1355.091 1355.091 0 0 1 15.764-17.253c6.94-7.46 13.884-14.858 20.812-22.24l.008-.009.004-.004c25.235-26.887 50.269-53.558 74.175-82.226 16.406-19.672 32.35-39.733 48.304-59.805l.012-.014c7.155-9.002 14.312-18.006 21.513-26.979v3.199Z"></path><path fill="#000000" d="M461.956 246.166A3514.982 3514.982 0 0 1 500 204.015v2.959a3486.51 3486.51 0 0 0-36.524 40.491c-9.868 11.123-19.762 22.238-29.661 33.359l-.002.002C369.961 352.557 305.914 424.507 247.483 500h-2.53c58.73-75.993 123.164-148.378 187.346-220.48 9.899-11.121 19.792-22.235 29.657-33.354Z"></path><path fill="#000000" d="M466.531 272.646c11.069-12.797 22.245-25.455 33.469-38.053v-3.004c-11.738 13.164-23.43 26.394-35.006 39.776-23.132 26.742-44.881 54.028-66.457 81.377-3.002 3.806-6.001 7.613-9 11.419l-.023.029-.023.03-.009.011c-18.537 23.532-37.073 47.06-56.391 70.299-14.712 17.699-29.933 35.127-45.164 52.568l-.002.001c-3.753 4.298-7.508 8.597-11.255 12.901h2.651c3.344-3.838 6.693-7.672 10.043-11.507l.008-.01.018-.02c15.233-17.441 30.474-34.891 45.263-52.682 19.339-23.265 37.895-46.82 56.435-70.355l.038-.048c3.001-3.809 6.002-7.618 9.005-11.425 21.574-27.347 43.299-54.603 66.4-81.307Z"></path><path fill="#000000" d="M500 108.393c-6.948 9.014-13.894 18.043-20.845 27.077l-.002.002-.003.004-.002.002c-25.814 33.552-51.689 67.183-77.925 100.436-33.196 42.076-67.913 83.161-102.639 124.256l-.002.001-.001.002c-4.834 5.72-9.668 11.441-14.499 17.165C249.841 417.913 216.066 458.924 182.38 500h2.588c33.335-40.645 66.76-81.222 100.667-121.4a29231.48 29231.48 0 0 1 14.497-17.163c34.725-41.094 69.466-82.207 102.685-124.312 26.246-33.266 52.133-66.913 77.951-100.469l.053-.069c6.396-8.313 12.787-16.62 19.179-24.914v-3.28Z"></path><path fill="#000000" d="M500 172.408c-5.074 5.464-10.154 10.915-15.225 16.358l-.002.001-.001.002c-18.619 19.98-37.122 39.837-54.82 59.723-66.72 74.963-132.304 151.502-197.801 227.939l-.006.007L211.953 500h-2.635c6.973-8.134 13.946-16.271 20.92-24.41l.354-.413.003-.004c65.504-76.444 131.109-153.007 197.839-227.983 17.766-19.961 36.306-39.858 54.943-59.858l.001-.001c5.538-5.943 11.085-11.895 16.622-17.861v2.938Z"></path><path fill="#000000" d="M483.29 70.515c5.568-5.592 11.139-11.187 16.71-16.793v2.833a31599.973 31599.973 0 0 1-15.344 15.419l-.014.014-.001.002c-35.425 35.58-70.703 71.013-105.337 108.258-66.62 71.641-132.55 143.713-195.969 218.531-20.907 24.665-41.373 49.598-61.834 74.524l-.002.002-.006.007A16991.422 16991.422 0 0 1 99.556 500h-2.592c7.653-9.282 15.285-18.58 22.92-27.881 20.466-24.933 40.947-49.885 61.901-74.605 63.45-74.854 129.405-146.953 196.031-218.6 34.66-37.273 69.969-72.737 105.398-108.322l.014-.014.062-.063Z"></path><path fill="#000000" d="M500 67.887c-7.489 6.66-14.955 13.382-22.27 20.61-13.943 13.777-27.233 29.147-40.454 44.438-7.019 8.119-14.02 16.215-21.088 24.039-12.661 14.014-25.787 27.519-38.891 41.001l-.002.002-1.281 1.319c-13.534 13.926-27.029 27.846-39.977 42.321-32.905 36.787-64.412 74.775-95.876 112.712-10.491 12.65-20.977 25.294-31.509 37.885-19.023 22.744-38.863 44.776-58.678 66.781v.001l-.002.001-.001.002-1.176 1.305c-11.873 13.186-23.731 26.367-35.4 39.696h-2.656c12.045-13.784 24.293-27.398 36.546-41.006l1.166-1.294c19.823-22.015 39.643-44.025 58.643-66.741 10.519-12.576 20.996-25.209 31.481-37.851l.005-.005v-.001l.003-.003c31.469-37.943 63.008-75.971 95.939-112.787 12.98-14.511 26.503-28.459 40.034-42.382l1.272-1.309c13.111-13.49 26.215-26.973 38.852-40.96 7.005-7.752 13.975-15.814 20.981-23.917 13.258-15.332 26.646-30.815 40.64-44.642 7.796-7.703 15.756-14.83 23.699-21.884v2.669Z"></path></svg>