<svg xmlns="http://www.w3.org/2000/svg" fill="none" viewBox="0 0 503 501"><path fill="#000000" d="M208.746 411.384c-15.8 0-20.54-9.83-26-28.67a10.235 10.235 0 0 1 1.07-7.77 6.165 6.165 0 0 1 3.51-3.11c6.6-1.65 13.37-1.77 19.92-1.89 9-.16 17.52-.31 25.88-4a67.387 67.387 0 0 0 8-4.7c7.64-4.91 16.29-10.47 24.09-7.87 5.25 1.75 8.15 4.31 8.63 7.61 1.11 7.65-11.56 16.5-19.94 22.36-1.49 1-2.78 1.94-3.78 2.69a101.25 101.25 0 0 0-9.35 8.46c-7.17 7-15.31 15-24.88 16.35a50.63 50.63 0 0 1-7.15.54Zm-20.68-36.64a3.612 3.612 0 0 0-1.64 1.69 7.34 7.34 0 0 0-.78 5.45c6.08 21.07 10.24 28.78 29.88 26 8.6-1.22 16-8.49 23.2-15.52a103.132 103.132 0 0 1 9.65-8.72c1-.78 2.35-1.69 3.86-2.75 6.83-4.77 19.53-13.65 18.69-19.47-.31-2.09-2.53-3.83-6.61-5.19-6.44-2.15-14.45 3-21.52 7.54a67.25 67.25 0 0 1-8.43 4.92c-8.92 4-18.13 4.13-27 4.29-6.42.07-13.03.23-19.3 1.76Z"></path><path fill="#000000" d="M474.646 215.124a20.607 20.607 0 0 1-12-3.94c-13-9.17-18.44-31.29-19.49-41.71-1.45-14.53 4.14-26.17 9.54-37.41 2.92-6.08 5.93-12.36 7.86-19.1 1.62-5.66 1.78-12.9 2-20.56.41-17.7.88-37.76 20.26-44.22 4.3-1.44 6-.59 7.69.65.21.15.42.31.65.46.1.06.193.131.28.21l1.88 1.92a1.2 1.2 0 0 1 .18.21c2.47 3.67 1.41 10.94.17 14.67-5.22 15.65-10.55 34.35-10.55 54.35 0 9.52 4.33 16.89 8.92 24.7 7.39 12.59 15.77 26.86 5.52 52.5-3.56 8.9-9.53 14.63-17.25 16.56-1.85.468-3.751.707-5.66.71Zm11.87-164.7a9.681 9.681 0 0 0-2.83.6c-17.38 5.8-17.8 23.92-18.21 41.45-.18 7.86-.35 15.28-2.08 21.32-2 7-5.07 13.38-8 19.56-5.46 11.38-10.62 22.12-9.25 35.82 1.16 11.56 7 31.63 18.22 39.55a17.816 17.816 0 0 0 15.17 2.78c8.53-2.13 13-9.21 15.19-14.77 9.71-24.27 2.07-37.28-5.32-49.86-4.59-7.81-9.33-15.88-9.33-26.22 0-20.43 5.41-39.42 10.7-55.3 1.14-3.41 1.84-9.39.26-11.93l-1.66-1.69c-.23-.15-.45-.31-.67-.47a3.31 3.31 0 0 0-2.19-.84Z"></path><path fill="#000000" d="M204.186 277.704a12.992 12.992 0 0 1-1.87-.13c-4.68-.67-8-3.82-9.84-9.37-1.84-5.55 1.42-10.87 4.58-16 2-3.22 3.85-6.27 4.32-9.11 4.16-25-10.36-41.3-43.17-48.59l-1.36-.3c-4.86-1.07-9.88-2.17-14.21-4.67a4.123 4.123 0 0 1-.85-.66 4.004 4.004 0 0 1-.938-4.365 4 4 0 0 1 3.688-2.515c7.36-.19 13.69-.73 19.28-1.2 18.49-1.55 31.84-2.67 60.08 9.88 18.7 8.31 25 23.09 19.78 46.52a60.07 60.07 0 0 1-8.7 20.45c-4.05 5.83-19.12 20.06-30.79 20.06Zm-23.81-94.87c-5.25 0-10.47.44-16.3.93-5.63.48-12 1-19.46 1.21a1.002 1.002 0 0 0-1.033 1.237c.05.204.163.387.323.523.07.068.147.128.23.18 3.93 2.27 8.72 3.32 13.35 4.34l1.37.3c34.65 7.7 50 25.2 45.48 52-.57 3.42-2.68 6.85-4.72 10.18-2.94 4.77-5.71 9.28-4.3 13.5 1.48 4.44 3.91 6.84 7.43 7.35 9.94 1.43 25.57-12.63 29.76-18.68a58.008 58.008 0 0 0 8.24-19.4c4.91-22.09-.66-35.4-18.07-43.13-18.94-8.4-30.71-10.54-42.3-10.54Z"></path><path fill="#000000" d="M160.066 11.654c-2.14 3.61-4.36 7.35-4.36 12 0 3.65 1.53 6.92 3 10.09a28.76 28.76 0 0 1 2.69 7.38c1.15 7-3 13-6.62 16.87-11.06 11.65-33.91 20.39-48.9 18.71-7.55-.85-12.52-3.38-15.19-7.72-5.22-8.47-.7-22.55 3.94-35.08.7-1.88 1.38-3.94 2.1-6.12 2.51-7.57 5.35-16.16 10-20.92.5-.5 1.1-1.08 1.78-1.73 1.43-1.39 3.16-3.06 4.87-4.92h-4.09c-1 1-2 1.94-2.81 2.76-.69.67-1.31 1.27-1.82 1.78-5.2 5.26-8.16 14.2-10.77 22.09-.71 2.16-1.38 4.19-2.06 6-4.89 13.21-9.64 28.09-3.64 37.71 3.15 5.11 9 8.18 17.42 9.13 1.365.15 2.737.224 4.11.22 15.58 0 36.65-8.64 47.3-19.85 5.91-6.22 8.47-12.93 7.4-19.41a31.667 31.667 0 0 0-2.93-8.17c-1.4-3-2.73-5.83-2.73-8.82 0-3.83 1.91-7 3.94-10.47 2.19-3.7 4.61-7.81 4.43-13h-3c.15 4.34-1.94 7.82-4.06 11.47Z"></path><path fill="#000000" d="M51.306 11.824c3.56 2.6 8.24 3.19 13.9 1.76 4.78-1.21 10.12-6.66 16.18-13.37h-4.07c-4.85 5.27-9.33 9.57-12.84 10.46-4.83 1.22-8.55.8-11.4-1.27-2.64-1.94-4.36-5.19-5.53-9.19h-3.15c1.32 4.9 3.42 9.06 6.91 11.61Z"></path><path fill="#000000" d="M190.186 22.284c-.92 6.1-2.36 14-5.38 21a145.082 145.082 0 0 1-20.21 33c-4 4.91-9.53 9.2-14.91 13.36-1.47 1.13-2.91 2.24-4.28 3.35a48.183 48.183 0 0 1-16.43 8.7c-32.79 9.91-47.86-16.62-62.43-42.28-11.15-19.62-21.68-38.2-39.54-40.39-9-1.12-17.93-.07-26.82 1.9v3.08c8.83-2 17.7-3.1 26.45-2 16.37 2 26.54 19.94 37.3 38.89 12.35 21.75 26.11 46 51.77 46 4.804-.048 9.574-.8 14.16-2.23a50.89 50.89 0 0 0 17.44-9.23c1.36-1.09 2.79-2.19 4.24-3.32 5.52-4.26 11.22-8.66 15.41-13.84a148.495 148.495 0 0 0 20.64-33.76c3.16-7.36 4.64-15.51 5.58-21.79a71.446 71.446 0 0 0 .24-22.51h-3c1.06 6.13 1.1 13.36-.23 22.07Z"></path><path fill="#000000" d="M500.186 316.214a88.253 88.253 0 0 0-11.22-.14c-20.16 1.19-38.26 11-55.77 20.44-12.64 6.83-25.72 13.9-39.31 17.52-33.49 8.94-60.33-1.55-77.6-30.34-5.49-9.14-9.3-16.35-8.41-26.09 1.27-14 6.36-26 11.75-38.65 2.68-6.3 5.45-12.82 7.71-19.61 3.11-9.34 3.58-18.29 4.08-27.77.16-3 .32-6.2.59-9.34.46-5.61 2.24-11.29 4-16.78a108.906 108.906 0 0 0 3.48-12.95c2.75-15.1-4.81-41.9-15.27-54.09-13.2-15.41-32.32-22.06-56.82-19.77-24.9 2.33-47.52 13.17-58.79 19.43-16.75 9.31-46.4 23-56.69 10.14a7.014 7.014 0 0 1-1.5-5.55c.87-6.9 9.49-15 14.44-18.74 3.86-2.89 8-5.77 12-8.55 19.56-13.58 39.78-27.63 43.73-53.31 2.47-16.08.75-28.82-4.24-41.81h-3.24c5.14 12.93 7 25.48 4.51 41.35-3.79 24.37-23.43 38.04-42.51 51.27-4 2.79-8.19 5.69-12.09 8.61-1.47 1.11-14.38 11-15.62 20.76a10.013 10.013 0 0 0 .246 4.126 10.017 10.017 0 0 0 1.894 3.674c5.5 6.88 15.81 8.15 30.66 3.77 8.71-2.57 18.74-7 29.83-13.16s33.25-16.79 57.61-19.06c23.47-2.2 41.73 4.11 54.27 18.73 9.8 11.43 17.16 37.48 14.59 51.6a107.459 107.459 0 0 1-3.39 12.59c-1.77 5.65-3.6 11.49-4.09 17.43-.27 3.19-.44 6.37-.6 9.44-.48 9.27-.94 18-3.93 27-2.22 6.67-5 13.13-7.62 19.37-5.24 12.34-10.67 25.1-12 39.56-1 10.62 3.23 18.59 8.82 27.9 13.87 23.11 33.61 34.93 57.87 34.93a89.404 89.404 0 0 0 23.08-3.23c13.94-3.71 27.17-10.87 40-17.78 17.22-9.31 35-18.94 54.52-20.08a85.547 85.547 0 0 1 11 .14l.03-2.98Z"></path><path fill="#000000" d="M500.186 266.534a285.547 285.547 0 0 0-45.6 19.82 132.784 132.784 0 0 0-14.9 9.75c-5.13 3.69-10.43 7.51-16.09 10.34-17.94 9-50.48 9-65.54-4.38-20.48-18.21-14.51-40.6-8.74-62.26 2.2-8.24 5.89-18.49 9.81-29.35 13.46-37.36 30.22-83.86 11.82-111.46-20.49-30.73-65.66-29.06-101.1-17.25-2.82.94-6.32 2.52-10 4.2-11.45 5.17-27.1 12.27-35.74 5.79-2.59-1.94-4-4-4.32-6.22-.62-4.42 3.07-9.3 6.63-14 1.4-1.84 2.72-3.59 3.81-5.34 1.46-2.33 3-4.68 4.6-7.17 10.25-15.83 21.88-33.76 19.75-53a39.16 39.16 0 0 0-1.11-5.79h-3.11a37.664 37.664 0 0 1 1.24 6.14c2 18.14-9.31 35.59-19.29 51-1.62 2.5-3.15 4.86-4.62 7.21-1 1.64-2.31 3.33-3.66 5.13-3.94 5.2-8 10.58-7.21 16.24.43 3 2.28 5.79 5.49 8.2 10 7.54 26 .33 38.76-5.46 3.63-1.64 7.05-3.19 9.72-4.08 34.39-11.46 78.11-13.26 97.66 16.07 17.56 26.34 1.09 72.05-12.15 108.77-3.93 10.92-7.65 21.24-9.88 29.6-6 22.53-12.22 45.84 9.65 65.27 7.6 6.76 19.62 10.79 33.82 11.35 1.1 0 2.2.07 3.3.07 11.7 0 23.36-2.41 31.75-6.6 5.88-2.94 11.28-6.83 16.5-10.59a131.94 131.94 0 0 1 14.56-9.54 284.993 284.993 0 0 1 44.19-19.3v-3.16Z"></path><path fill="#000000" d="M500.186.214h-.24c0 4-2.26 7.9-6.65 11.74-20.11 17.56-47.3 14.6-73.62 11.73-12.85-1.4-26.13-2.85-38.12-1.76-10.53 1-19.54 5.84-28.26 10.55-8.72 4.71-16.75 9.07-26.34 10.13-12.53 1.4-26 .33-36-2.84-13.65-4.33-21.28-12.21-22.68-23.43-.68-5.41.36-10.66 1.66-16.12h-3.08c-1.25 5.35-2.27 10.84-1.56 16.5 2.89 23.31 29.43 29.5 50.52 29.5 3.832 0 7.661-.207 11.47-.62 10.17-1.13 18.95-5.88 27.44-10.48 8.84-4.78 17.19-9.3 27.1-10.2 11.69-1.06 24.24.3 37.52 1.75 27 2.94 54.86 6 75.93-12.46a27.256 27.256 0 0 0 4.91-5.49v-8.5Z"></path><path fill="#000000" d="M372.046.214c-1.76.58-3.57 1.18-5.43 1.82-15.51 5.24-33.09 11.19-47 2.86a16.995 16.995 0 0 1-5.28-4.68h-3.58a18.692 18.692 0 0 0 7.35 7.26 33.62 33.62 0 0 0 17.66 4.59c10.56 0 21.61-3.74 31.81-7.19 3.21-1.09 6.25-2.12 9.17-3a57.708 57.708 0 0 1 7.6-1.66h-12.3Z"></path><path fill="#000000" d="M500.186 72.214c-.12.4-.26.81-.38 1.22-3.78 13.24-3.21 28 .38 42.63v-43.85Z"></path><path fill="#000000" d="m500.186 252.414-1.54.41c-7 1.92-13.3 5.59-19.35 9.13-3 1.73-6 3.53-9.12 5.07-17.88 8.94-59.69 19.69-75.34 4-35.75-35.71-13.53-91.24 2.69-131.81 1.17-3 2.66-5.87 4.23-9 3.1-6.11 6.3-12.43 7.14-19.13 1.52-12.16-8.41-19-17.17-25.09-10.13-7-18.88-13-12.58-25.65 1.67-3.35 4.31-6.5 6.87-9.56.8-1 1.6-1.91 2.36-2.86 3.74-4.68 10.64-3.63 16.72-2.71 1.06.16 2.08.32 3.06.44 13.31 1.67 44.49 7.61 46.63 26.87 1.58 14.17-5.08 24.56-12.12 35.55a149.91 149.91 0 0 0-7.94 13.43c-2.24 4.53-4.43 8.71-6.54 12.71-14.07 26.61-23.36 44.19-3.74 78.52 4.67 8.18 14.72 22.56 29.53 27 12.2 3.66 29.33 1.52 46.22-5v-3.3c-16.63 6.61-33.69 8.94-45.36 5.44-13.81-4.14-23.34-17.83-27.79-25.62-18.8-32.9-10.3-49 3.79-75.63 2.13-4 4.33-8.2 6.59-12.71a144.049 144.049 0 0 1 7.76-13.17c7-11 14.26-22.28 12.57-37.5-2.37-21.38-35.22-27.76-49.23-29.51-1-.12-2-.28-3-.43-6.54-1-14.69-2.24-19.52 3.8-.74.93-1.52 1.86-2.31 2.81a53.994 53.994 0 0 0-7.25 10.14c-7.47 14.93 3.22 22.32 13.55 29.46 8.84 6.12 17.2 11.89 15.9 22.25-.77 6.18-3.85 12.26-6.84 18.14-1.53 3-3.11 6.15-4.34 9.21-16.53 41.33-39.17 97.92-2 135.07 6.44 6.45 16.62 8.87 27.82 8.87 18.22 0 39.13-6.42 51-12.34 3.18-1.59 6.29-3.41 9.29-5.17 5.88-3.45 12-7 18.63-8.82l.75-.21-.02-3.1Z"></path><path fill="#000000" d="M500.186 467.324c-3.86.85-7.71 1.67-11.5 2.47-18.05 3.83-35.09 7.45-46.5 13.16a75.694 75.694 0 0 0-22.61 17.26h4.14a72.435 72.435 0 0 1 19.81-14.58c11.07-5.53 27.93-9.11 45.78-12.9 3.59-.76 7.23-1.54 10.88-2.34v-3.07Z"></path><path fill="#000000" d="M308.356 489.514c-3.45-17.24-20.72-22.19-36-26.55-11.44-3.28-22.25-6.37-25.07-14.06-2.34-6.35.72-15.74 9.36-28.7a40.113 40.113 0 0 1 16-14.19c8.56-4.28 16.14-10.62 23.16-19.39 2.2-2.74 3.75-6.22 5.25-9.58 3.57-8 7-15.64 18.79-15.64a34.46 34.46 0 0 1 5.29.44c9 1.38 13.68 5.66 18.65 10.19 7.55 6.89 15.36 14 38.07 10.23 23.16-3.86 48-14.94 70-24.71l3.88-1.73a131.135 131.135 0 0 0 13.46-7.3c7.19-4.27 14.63-8.7 23-10.36 2.69-.54 5.38-.94 8-1.21v-3c-2.86.29-5.74.71-8.63 1.29-8.84 1.76-16.5 6.32-23.91 10.72a127.724 127.724 0 0 1-13.15 7.14l-3.89 1.73c-21.77 9.7-46.46 20.7-69.25 24.49-21.25 3.55-28.2-2.78-35.55-9.49-5.08-4.63-10.33-9.41-20.21-10.94-18.46-2.85-23.15 7.67-27.28 16.95a41.45 41.45 0 0 1-4.85 8.93c-6.75 8.42-14 14.5-22.16 18.58a43.455 43.455 0 0 0-17.13 15.19c-9.34 14-12.42 24-9.69 31.4 3.35 9.11 14.87 12.41 27.06 15.9 15.12 4.33 30.76 8.81 33.85 24.26a77.64 77.64 0 0 1 1.33 10.11h3a82.123 82.123 0 0 0-1.38-10.7Z"></path><path fill="#000000" d="M500.186 440.404c-3.13 1.33-6.22 2.67-9.26 4-19.42 8.43-37.76 16.39-59.37 20.72-11.55 2.31-25 4.6-27.24 4.38-7.6-5.25-18-23.34-20-31.45-4.31-17.23 12.26-29.33 25.58-39.05 2.25-1.65 4.38-3.2 6.34-4.73 7.39-5.74 15.18-6.72 23.43-7.76a78.226 78.226 0 0 0 15.33-3 149.721 149.721 0 0 0 18.17-8c7.25-3.58 14.74-7.28 22.14-9.13 1.59-.4 3.23-.7 4.89-.95v-3a54.988 54.988 0 0 0-5.62 1.08c-7.71 1.93-15.35 5.7-22.74 9.35a146.42 146.42 0 0 1-17.79 7.83 75.546 75.546 0 0 1-14.76 2.89c-8.29 1.05-16.85 2.13-24.89 8.38-1.92 1.49-4 3-6.27 4.67-14 10.25-31.52 23-26.72 42.2 2.2 8.82 12.91 27.65 21.44 33.34.18.12.47.31 1.82.31 2.65 0 9.42-.76 27.48-4.37 21.93-4.39 40.41-12.41 60-20.91l8.07-3.48-.03-3.32Z"></path><path fill="#000000" d="M500.186 419.004c-3.63 1.39-7.22 2.83-10.78 4.25-14.87 6-30.26 12.15-46.58 13.63-11.15 1-17.86-.3-18.42-3.6-1.19-7 19.93-22.79 32.39-25.91 11.92-3 24.57-6.38 36.33-11.08 1.77-.71 4.2-1.59 7.06-2.56v-3.13c-3.7 1.23-6.6 2.27-8.17 2.9-11.6 4.64-24.13 8-35.95 11-11.82 3-36.29 19.45-34.61 29.32.91 5.39 8.25 6.48 14.45 6.48 2.92 0 5.58-.24 7.19-.39 16.76-1.52 32.35-7.78 47.43-13.83 3.19-1.28 6.41-2.57 9.66-3.83v-3.25Z"></path><path fill="#000000" d="M466.356 500.214h-.17a9.997 9.997 0 0 0-4.81.05l4.98-.05Z"></path><path fill="#000000" d="M500.186 491.554a17.994 17.994 0 0 0-7.4 8.44 1.817 1.817 0 0 0-.07.22h3.26a14.602 14.602 0 0 1 4.21-5v-3.66Z"></path><path fill="#000000" d="M375.386 461.084c-7.81-5.85-12.65-11.55-16.71-19.68-3.54-7.08-5.42-14.63-7.24-21.93-2.32-9.34-4.73-19-10.62-27.84-2.46-3.69-6.32-5.82-11.48-6.34-9.35-.92-19.72 3.77-21.45 5.5-3.22 3.22-6.22 5.85-8.87 8.17-7.84 6.88-13.5 11.85-16.63 24.37-2.46 9.82 9.52 16.85 22.2 24.29 10.86 6.38 22.09 13 23.71 21.08.89 4.16-.11 13.51-1.11 24.29-.23 2.33-.47 4.75-.7 7.22h3c.22-2.37.45-4.69.67-6.93 1.13-11.49 2-20.57 1.11-25.17-1.89-9.43-13.71-16.36-25.14-23.08-11.69-6.85-22.72-13.33-20.81-21 2.9-11.61 8-16.08 15.7-22.84 2.68-2.35 5.72-5 9-8.31 1.12-1.12 9.25-4.73 16.88-4.73.73 0 1.45 0 2.16.1 4.21.42 7.34 2.11 9.28 5 5.6 8.4 7.83 17.38 10.2 26.89 1.86 7.46 3.77 15.17 7.46 22.55 4.29 8.58 9.39 14.59 17.59 20.74 8.65 6.48 7.12 22.94 4.74 36.73h3c2.49-14.41 3.91-31.69-5.94-39.08Z"></path><path fill="#000000" d="M294.396 330.034c-12.93-8.62-32.65 3-51.72 14.16-10.74 6.31-20.89 12.26-28.48 13.64-20.12 3.66-38.39 2.64-59.61 0-4.4-.55-9.42-2.47-14.72-4.5-9.35-3.58-19-7.27-27.49-4.44-9.52 3.17-12.13 22-14.22 37.12-1 6.88-1.86 13.39-3.19 16.12-.56.64-3.77 2.34-6.86 4-14.63 7.79-45.07 24-55.76 52.79-3.63 9.77-6.87 21.91.35 29.12 9 9 27.51.2 38.57-5.05 1.8-.86 3.36-1.6 4.63-2.14 23.56-10.1 56.37-19.78 78.83-8.55 11.26 5.63 22.62 16.74 31.08 27.93h3.79c-8.83-12.18-21.09-24.39-33.53-30.61-7.58-3.79-16.22-5.33-25.26-5.33-19 0-39.74 6.79-56.09 13.8-1.32.56-2.9 1.32-4.74 2.19-10.35 4.91-27.67 13.13-35.16 5.64-6-6-3-17 .34-25.95 10.3-27.76 40.03-43.59 54.36-51.21 5.68-3 7.51-4 8.11-5.24 1.56-3.13 2.46-9.61 3.5-17.11 1.88-13.55 4.45-32.11 12.2-34.69 7.46-2.49 16.61 1 25.46 4.4 5.49 2.1 10.66 4.08 15.42 4.68 21.51 2.68 40 3.71 60.53 0 8.11-1.47 18.48-7.56 29.46-14 17.42-10.23 37.17-21.83 48.53-14.26 9.37 6.25 2.42 19.66-2.18 28.53-.48.92-.93 1.79-1.33 2.59-5.94 11.88-23.45 33.64-36.31 39.35l-1.79.79c-12.38 5.46-33.09 14.6-35.13 28.9-2.72 19 14.56 32.55 32.85 46.86 8.46 6.61 17 13.32 23.56 20.67h4c-6.93-8.35-16.44-15.79-25.7-23-17.59-13.75-34.2-26.74-31.73-44.06 1.81-12.66 22.34-21.72 33.37-26.58l1.8-.8c13.65-6.07 31.49-28.19 37.77-40.75l1.31-2.55c4.78-9.28 12.78-24.72 1.18-32.46Z"></path><path fill="#000000" d="M227.976 490.584c-4.19-5.87-7.91-12.37-11.51-18.66-2.24-3.91-4.56-8-7-11.8-4.3-6.88-6.22-14.8-8.07-22.47-2.06-8.46-4.18-17.21-9.5-24.66-7.37-10.33-17.18-15-26.66-19.6-5.75-2.77-11.71-5.64-17.21-9.76-1.78-1.34-3.74-3.94-5.81-6.69-5.2-6.92-11.68-15.53-20.79-11-4.72 2.36-7.59 5.26-8.77 8.87-2 6 1.39 12.52 4.34 18.25 2.3 4.45 4.47 8.67 3.26 11.1-2.13 4.26-8.54 6.27-14.2 8a52.97 52.97 0 0 0-7.66 2.8c-5.06 2.53-49.33 25.29-44.81 44.78a4.94 4.94 0 0 0 3.13 3.79c6.12 2.26 18.87-6.57 32.51-16.61a85.69 85.69 0 0 1 7.51-5.25c18.66-9.32 45.9-14.89 61.61-5.07 29.31 18.32 36.26 31.3 46.78 50.94 2.1 3.92 4.34 8.1 6.91 12.61h3.46c-2.92-5.06-5.41-9.7-7.73-14-10.36-19.35-17.84-33.33-47.83-52.08-6.61-4.12-14.54-5.71-22.72-5.71-15.57 0-32 5.75-41.82 10.65a81.01 81.01 0 0 0-8 5.51c-8.59 6.33-24.58 18.1-29.69 16.21a2.001 2.001 0 0 1-1.25-1.65c-3.25-14 26.86-33.23 43.23-41.42a52.613 52.613 0 0 1 7.22-2.62c6.22-1.95 13.28-4.16 16-9.56 1.9-3.79-.61-8.66-3.27-13.82s-5.73-11.1-4.15-15.94c.91-2.8 3.29-5.13 7.25-7.11 6.38-3.2 11.09 2.17 17.06 10.09 2.2 2.93 4.28 5.7 6.4 7.29 5.73 4.3 11.82 7.23 17.71 10.06 9.56 4.6 18.59 8.94 25.52 18.64 5 7 6.94 15.07 9 23.63 1.91 7.9 3.89 16.06 8.45 23.35 2.37 3.79 4.67 7.81 6.89 11.7 3.64 6.35 7.4 12.92 11.68 18.91a67.611 67.611 0 0 0 6.91 7.83l.06.06h4.18c-.69-.73-1.4-1.45-2.09-2.16a66.22 66.22 0 0 1-6.53-7.43Z"></path><path fill="#000000" d="M81.406 496.994a41.877 41.877 0 0 0-12.06 3.22h10.42c.63-.1 1.26-.19 1.88-.23a101.234 101.234 0 0 1 17.54.23h17.72a113.276 113.276 0 0 0-35.5-3.22Z"></path><path fill="#000000" d="M71.076 339.414c-3.16-1.7-6.14-3.31-8.8-4.91a144.824 144.824 0 0 1-16-11.57c-12.38-9.85-24.09-19.16-46.09-17.72v3c21-1.42 31.76 7.15 44.21 17.07a149.58 149.58 0 0 0 16.33 11.8c2.73 1.63 5.74 3.25 8.93 5 7.46 4 15.18 8.18 19.82 12.82.89.89.71 4.5.62 6.24 0 .65-.06 1.24-.06 1.71 0 12.49-3.31 23.45-19.46 36.38-3 2.4-6.65 3.78-10.51 5.23-4.19 1.59-8.53 3.23-12.07 6.32-26.51 23.17-54.7 57.23-41.25 89.43h3.28c-13.95-30.9 13.87-64.38 40-87.2 3.12-2.74 7-4.21 11.15-5.77 3.91-1.48 8-3 11.32-5.7 12.36-9.89 20.59-20.25 20.59-38.72 0-.43 0-1 .06-1.56.15-3 .33-6.68-1.5-8.51-5-4.95-12.91-9.21-20.57-13.34Z"></path><path fill="#000000" d="M.186 419.644v3.37a9.882 9.882 0 0 1 1.84 1.42c.74.75 1 2.44.58 4.75a34.916 34.916 0 0 1-2.42 7.71v6.89c2.58-4.81 4.72-10.05 5.38-14.12.55-3.39.07-5.86-1.42-7.35a13.333 13.333 0 0 0-3.96-2.67Z"></path><path fill="#000000" d="M33.296 352.294c-2-3.38-4.06-6.88-8.1-9.3-5.92-3.55-14.71-5.56-25-5.78v3c9.06.22 17.68 1.87 23.47 5.34 3.38 2 5.16 5 7.05 8.26a44.943 44.943 0 0 0 3.55 5.4c7.52 9.4 10.2 17 8 22.6-4.22 10.5-24.76 13.58-42 15.87v3c18.13-2.41 39.92-5.61 44.81-17.78 2.72-6.77 0-15.14-8.39-25.6a42.239 42.239 0 0 1-3.39-5.01Z"></path><path fill="#000000" d="M259.186 143.754c-2.08-.77-4-1.64-5.88-2.48-4.54-2.05-8.83-4-14.62-4.5-14.85-1.35-33 1.47-52.17 4.45-33.28 5.18-67.7 10.52-92.56-3.68-18.18-10.39-27.1-28.63-35.73-46.26-8.4-17.15-16.32-33.35-32-42.77-7.29-4.38-16.46-6-26-5.74v3c8.25-.21 17.22 1 24.51 5.32 14.94 9 22.68 24.78 30.87 41.52 8.83 18 18 36.69 36.94 47.54 25.78 14.73 62.29 9 94.51 4 19-3 37-5.75 51.44-4.43 5.29.48 9.36 2.31 13.66 4.24 1.91.86 3.89 1.75 6.05 2.56 20.74 7.78 32.31 15.27 38.7 25.06 7.08 10.85 8.32 25.27 4 46.77-2.26 11.27-6.72 20.16-11.44 29.57a178.822 178.822 0 0 0-8.61 19 136.62 136.62 0 0 0-3.93 13.87c-2.38 9.66-4.84 19.64-11.3 27-18.83 21.53-46.92 33.79-81.23 35.47-29.22 1.42-62-5.15-89.92-18-10.29-4.7-20.09-11.05-29.54-17.23-12.75-8.3-25.86-16.88-40.75-21.82-7-2.34-15.12-3.08-24-2.24v3c8.6-.84 16.39-.15 23.08 2.08 14.49 4.83 27.48 13.3 40 21.49 9.57 6.22 19.42 12.67 29.92 17.51a204.236 204.236 0 0 0 83.22 18.5c2.733 0 5.437-.067 8.11-.2 35.14-1.71 64-14.33 83.34-36.49 6.94-7.92 9.49-18.27 11.95-28.27a132.727 132.727 0 0 1 3.84-13.56 176.12 176.12 0 0 1 8.47-18.72c4.6-9.18 9.37-18.66 11.7-30.33 4.47-22.33 3.09-37.44-4.45-49-6.76-10.37-18.76-18.21-40.18-26.23Z"></path><path fill="#000000" d="M213.896 164.214c-12.93-3.23-25.9-1.18-38.45.8-3.75.59-7.62 1.2-11.4 1.66-3.17.38-6.36.78-9.56 1.18-25.75 3.23-52.37 6.57-77.6.84-20.32-4.59-44.46-21.84-49.7-42.71-1.38-5.52-1.2-12-1-19 .41-14.72.88-31.41-16.36-37.88a28.671 28.671 0 0 0-9.64-1.65v3a25.35 25.35 0 0 1 8.6 1.49c15.23 5.72 14.83 19.93 14.41 35-.19 6.81-.38 13.84 1.1 19.77 3.28 13.11 12.77 23 20.16 29 9.41 7.66 21 13.45 31.77 15.9 25.74 5.85 52.63 2.48 78.63-.78 3.2-.41 6.39-.8 9.54-1.18 3.84-.46 7.74-1.08 11.52-1.68 12.25-1.93 24.92-3.93 37.25-.85 12.73 3.18 25.87 11.46 35.15 22.15 10.19 11.72 14.82 25 13 37.45-2.79 19.57-13.83 36.68-32.82 50.84-34 25.33-84 33.8-115.9 29.08-14.41-2.11-27.86-8.91-40.88-15.43-4.89-2.47-10-5-15-7.29-7.85-3.53-14.85-10-22.27-16.82-10.26-9.57-20.9-19.33-34.26-21.09v3.06c12.34 1.84 22.43 11.14 32.26 20.14 7.26 6.7 14.78 13.63 23.07 17.36 5 2.23 10 4.77 14.85 7.23 13.23 6.68 26.9 13.59 41.83 15.8 32.51 4.81 83.52-3.82 118.14-29.64 19.37-14.45 31.12-32.72 34-52.83 1.89-13.3-3-27.45-13.75-39.84-9.67-11.08-23.4-19.72-36.69-23.08Z"></path><path fill="#000000" d="M140.396 198.674c-6.35-2.54-13-5-19.41-7.37-12.8-4.75-26.1-9.66-37.8-15.49-3.72-1.86-8.6-1.67-13.32-1.48a41.933 41.933 0 0 1-8-.15c-6.88-1.15-15.31-5.83-21.89-9.77-11.6-7-25.68-23.78-28.18-38.81-.55-3.27-.84-6.76-1.16-10.45-.91-10.94-1.95-23.17-10.45-30.12v4.18c5.79 6.39 6.65 16.42 7.48 26.21.32 3.75.63 7.29 1.19 10.68 2.65 15.88 17.42 33.59 29.6 40.89 6.8 4.08 15.55 8.93 22.94 10.16 2.864.342 5.754.405 8.63.19 4.34-.17 8.83-.35 11.86 1.16 11.8 5.9 25.15 10.84 38.06 15.62 6.4 2.37 13 4.82 19.34 7.35 12.32 4.93 33.48 22.37 30 38.13-2.4 10.82-11.66 18.35-19 22.75a84.556 84.556 0 0 1-29.1 10.45c-26.89 4.14-69.3-18.53-100.26-35.07-6.34-3.39-12.32-6.58-17.39-9.12-1.13-.57-2.25-1.12-3.35-1.66v3.35l2 1c5 2.52 11 5.71 17.31 9.08 28.74 15.36 67.21 35.92 94.9 35.92 2.42.009 4.837-.168 7.23-.53 17.76-2.73 45.87-14.44 50.55-35.52 3.93-17.65-18.25-36.17-31.78-41.58Z"></path><path fill="#000000" d="m74.246 190.214-2-.53-6.22-1.66c-17.7-4.7-41.94-11.13-54-21.44-4.44-3.88-8.7-10.57-11.84-17.49v6.71c2.87 5.19 6.3 9.9 10 13 12.55 10.75 37.17 17.29 55.15 22.06 2.19.58 4.27 1.13 6.2 1.66l2 .53c10.58 2.82 19.72 5.26 17.37 18.18-1 5.23-4.17 9.81-9.31 13.25-7.75 5.19-19.57 7.44-28.75 5.47-14.53-3.05-28.66-14.63-42.27-25.84-3.5-2.87-7-5.71-10.39-8.39v3.82c2.8 2.23 5.63 4.55 8.49 6.89 13.91 11.43 28.3 23.25 43.48 26.5 2.558.539 5.166.804 7.78.79a43.128 43.128 0 0 0 23.25-6.7c5.83-3.9 9.49-9.16 10.59-15.21 2.87-15.6-9.03-18.81-19.53-21.6Z"></path></svg>